<svg width="24" height="25" viewBox="0 0 24 25" fill="none" xmlns="http://www.w3.org/2000/svg">
<g filter="url(#filter0_d_348_1338)">
<mask id="mask0_348_1338" style="mask-type:alpha" maskUnits="userSpaceOnUse" x="0" y="0" width="24" height="24">
<rect width="24" height="24" fill="#002019"/>
</mask>
<g mask="url(#mask0_348_1338)">
<path d="M12 22C10.2333 22 8.79167 21.7208 7.675 21.1625C6.55833 20.6042 6 19.8833 6 19C6 18.4167 6.24167 17.9083 6.725 17.475C7.20833 17.0417 7.875 16.7 8.725 16.45L9.3 18.35C9.01667 18.4333 8.75833 18.5375 8.525 18.6625C8.29167 18.7875 8.13333 18.9 8.05 19C8.26667 19.2667 8.76667 19.5 9.55 19.7C10.3333 19.9 11.15 20 12 20C12.85 20 13.6708 19.9 14.4625 19.7C15.2542 19.5 15.7583 19.2667 15.975 19C15.8917 18.9 15.7333 18.7875 15.5 18.6625C15.2667 18.5375 15.0083 18.4333 14.725 18.35L15.3 16.45C16.15 16.7 16.8125 17.0417 17.2875 17.475C17.7625 17.9083 18 18.4167 18 19C18 19.8833 17.4417 20.6042 16.325 21.1625C15.2083 21.7208 13.7667 22 12 22ZM12 15.325C12.3 14.775 12.6167 14.2708 12.95 13.8125C13.2833 13.3542 13.6083 12.9167 13.925 12.5C14.5417 11.7 15.0333 10.9792 15.4 10.3375C15.7667 9.69583 15.95 8.9 15.95 7.95C15.95 6.85 15.5667 5.91667 14.8 5.15C14.0333 4.38333 13.1 4 12 4C10.9 4 9.96667 4.38333 9.2 5.15C8.43333 5.91667 8.05 6.85 8.05 7.95C8.05 8.9 8.23333 9.69583 8.6 10.3375C8.96667 10.9792 9.45833 11.7 10.075 12.5C10.3917 12.9167 10.7167 13.3542 11.05 13.8125C11.3833 14.2708 11.7 14.775 12 15.325ZM12 19C11.8167 19 11.65 18.9458 11.5 18.8375C11.35 18.7292 11.2417 18.5833 11.175 18.4C10.7917 17.2167 10.3083 16.225 9.725 15.425C9.14167 14.625 8.575 13.8583 8.025 13.125C7.49167 12.3917 7.02917 11.6333 6.6375 10.85C6.24583 10.0667 6.05 9.1 6.05 7.95C6.05 6.28333 6.625 4.875 7.775 3.725C8.925 2.575 10.3333 2 12 2C13.6667 2 15.075 2.575 16.225 3.725C17.375 4.875 17.95 6.28333 17.95 7.95C17.95 9.1 17.7583 10.0667 17.375 10.85C16.9917 11.6333 16.525 12.3917 15.975 13.125C15.4417 13.8583 14.8792 14.625 14.2875 15.425C13.6958 16.225 13.2083 17.2167 12.825 18.4C12.7583 18.5833 12.65 18.7292 12.5 18.8375C12.35 18.9458 12.1833 19 12 19ZM12 10.075C12.5833 10.075 13.0833 9.86667 13.5 9.45C13.9167 9.03333 14.125 8.53333 14.125 7.95C14.125 7.36667 13.9167 6.86667 13.5 6.45C13.0833 6.03333 12.5833 5.825 12 5.825C11.4167 5.825 10.9167 6.03333 10.5 6.45C10.0833 6.86667 9.875 7.36667 9.875 7.95C9.875 8.53333 10.0833 9.03333 10.5 9.45C10.9167 9.86667 11.4167 10.075 12 10.075Z" fill="#99A63C"/>
</g>
</g>
<defs>
<filter id="filter0_d_348_1338" x="4" y="1" width="16" height="24" filterUnits="userSpaceOnUse" color-interpolation-filters="sRGB">
<feFlood flood-opacity="0" result="BackgroundImageFix"/>
<feColorMatrix in="SourceAlpha" type="matrix" values="0 0 0 0 0 0 0 0 0 0 0 0 0 0 0 0 0 0 127 0" result="hardAlpha"/>
<feOffset dy="1"/>
<feGaussianBlur stdDeviation="1"/>
<feComposite in2="hardAlpha" operator="out"/>
<feColorMatrix type="matrix" values="0 0 0 0 0.6 0 0 0 0 0.65098 0 0 0 0 0.235294 0 0 0 1 0"/>
<feBlend mode="normal" in2="BackgroundImageFix" result="effect1_dropShadow_348_1338"/>
<feBlend mode="normal" in="SourceGraphic" in2="effect1_dropShadow_348_1338" result="shape"/>
</filter>
</defs>
</svg>
